<svg xmlns="http://www.w3.org/2000/svg" viewBox="0 0 281.48 257.14"><defs><style>.cls-1{fill:#f6d43b;}.cls-2{fill:#5b5c5e;}.cls-3{fill:#d9dadc;}.cls-4{fill:#b8b9bb;}.cls-5{fill:#98999c;}.cls-6{fill:#7a7b7d;}</style></defs><title>logo-gs1</title><g id="Capa_2" data-name="Capa 2"><g id="Modo_de_aislamiento" data-name="Modo de aislamiento"><path class="cls-1" d="M269.34,156.29A123.23,123.23,0,0,1,225,251c-2.5,2.09-2.44,5.21,0,6s5.25-1.45,7.11-3.08A144.48,144.48,0,0,0,281.48,146C282,66.06,216.48.44,136.54,0,68.2-.37,19.17,44.87,2.11,87.2-5.67,106.52,9,129,29.88,128.78c3.74-9.53,22.74-98.07,116.79-95.56,67.72,1.8,122.67,55.1,122.67,123.08"/><path class="cls-2" d="M67.44,111.46a16.69,16.69,0,1,1,16.68,16.69,16.68,16.68,0,0,1-16.68-16.69"/><path class="cls-3" d="M45.78,184.77a153.53,153.53,0,0,0,91.6,30.56c35.79.13,67.94-11.29,94.18-31.65,0,0,6-4.09,1.25-8-3.43-2.82-8.43.29-10.93,2A156,156,0,0,1,138,205.9a153.53,153.53,0,0,1-92.07-26.7s-2.7-2.34-3.5.73c-.5,1.94,3.33,4.84,3.33,4.84"/><path class="cls-4" d="M199,167.4c-17.66,9.82-37.17,17.08-58.5,19.69a155.7,155.7,0,0,1-94.7-18.91s-2.9-2.1-3.42,1c-.33,2,3.75,4.53,3.75,4.53a155.73,155.73,0,0,0,94.57,22.79,153.61,153.61,0,0,0,67.18-21.89,43.88,43.88,0,0,0,7.27-4.6,5.14,5.14,0,0,0-.26-8.08c-3.09-2.42-5.7-.64-7.77.46-.8.43-3.23,2.25-8.11,5"/><path class="cls-5" d="M181.39,153.57a158,158,0,0,1-40,14.42,154.72,154.72,0,0,1-95.67-10.51s-3.07-1.84-3.32,1.33c-.16,2,4.12,4.19,4.12,4.19a154.71,154.71,0,0,0,95.86,14.39,154,154,0,0,0,48.41-16.86s4.09-2.15,6.53-3.69c2.65-1.68,4.05-5,0-8.17-3.05-2.36-6.89,0-8.65.93-.71.36-4.56,2.58-7.26,4"/><path class="cls-6" d="M162.9,140a149.73,149.73,0,0,1-22.59,8.94c-32.59,10-64.83,8.91-94.73-1.52,0,0-3.22-1.56-3.19,1.62,0,2,4.48,3.81,4.48,3.81C76.53,164.62,109,167,142.15,158.22a154.8,154.8,0,0,0,30-11.41s3.21-1.71,6.15-3.43c1.84-1.08,4.27-4.78.52-7.7-2.4-1.87-6.51-.75-7.79,0s-5.39,2.94-8.17,4.32"/><path class="cls-2" d="M137.74,129.85c-31.64,12.68-61.62,14.72-92.28,6.84,0,0-3.34-1.28-3,1.88.19,2,4.78,3.42,4.78,3.42,30.53,9.24,60.81,8.53,93.15-3q7.06-2.53,13.72-5.66s4.48-2.14,5.46-2.66,5.24-3.88.62-7.45c-3.37-2.6-8.48.51-10,1.25-3.52,1.68-9.28,4.19-12.37,5.43"/></g></g></svg>